<?xml version="1.0" encoding="utf-8"?>
<!-- Generator: Adobe Illustrator 18.0.0, SVG Export Plug-In . SVG Version: 6.00 Build 0)  -->
<!DOCTYPE svg PUBLIC "-//W3C//DTD SVG 1.1//EN" "http://www.w3.org/Graphics/SVG/1.1/DTD/svg11.dtd">
<svg version="1.1" xmlns="http://www.w3.org/2000/svg" xmlns:xlink="http://www.w3.org/1999/xlink" x="0px" y="0px"
	 viewBox="160 -45 640 650" enable-background="new 160 -45 640 650" xml:space="preserve">
<g id="Layer_1">
	<g id="Layer_1_1_">
	</g>
	<g id="Layer_2">
		<g>
			<rect x="160.6" y="-45" fill="#E8947E" width="639.4" height="324.4"/>
			<rect x="160.6" y="-45" fill="none" stroke="#000000" stroke-miterlimit="10" width="639.4" height="324.4"/>
			<g display="none" opacity="0.3">
				
					<image display="inline" overflow="visible" enable-background="new    " width="714" height="724" xlink:href="A4998065.png"  transform="matrix(0.8587 0 0 0.4517 173.3967 -30.9743)">
				</image>
			</g>
		</g>
		<g id="Trendy_hair_styling">
			<ellipse fill="none" stroke="#262625" stroke-width="3" stroke-miterlimit="10" cx="658.6" cy="104.1" rx="38.6" ry="38.9"/>
			<path fill="none" stroke="#262625" stroke-width="2" stroke-linecap="round" stroke-linejoin="round" stroke-miterlimit="10" d="
				M679.7,77.9c-6.8,20.4-27.1,38.9-27.1,38.9c0-0.1-0.1,0.9,0.5,1c7.6,2.2,6.5,10.4-0.1,14c-0.1,0.1-0.2,0.1-0.3,0.2
				c-1.4,0.6-10.9,3.6-10-9.2l-0.3-0.2c-12.4,3.1-11.2-7-10.9-8.5c0-0.1,0.1-0.2,0.1-0.3c2.4-7.1,10.2-9.8,13.7-2.5
				c0.3,0.5,1.2,0.3,1.1,0.3C646.5,111.6,660.9,88.2,679.7,77.9"/>
			<path fill="none" stroke="#262625" stroke-width="2.1486" stroke-linecap="round" stroke-miterlimit="10" d="M647.1,128.2
				c-1-1.4,0-3.9,2.2-5.5c2.2-1.6,4.8-1.7,5.8-0.2c1,1.4,0,3.9-2.2,5.5C650.7,129.5,648.1,129.6,647.1,128.2z"/>
			<path fill="none" stroke="#262625" stroke-width="2.1486" stroke-linecap="round" stroke-miterlimit="10" d="M640.7,110.4
				c1.6,0.8,1.9,3.4,0.8,5.8c-1.2,2.5-3.4,3.8-5,3.1c-1.6-0.8-1.9-3.4-0.8-5.8S639.1,109.6,640.7,110.4z"/>
			<ellipse fill="#262625" cx="666.2" cy="93.9" rx="1.3" ry="1.3"/>
			<line fill="none" stroke="#231F20" stroke-miterlimit="10" x1="642.5" y1="122.7" x2="660.1" y2="101.1"/>
			<polyline fill="#D8CFC3" stroke="#262625" stroke-width="1.5" stroke-linecap="round" stroke-miterlimit="10" points="
				641.9,122.4 643.7,121.1 642.9,123.3 			"/>
			<polyline fill="none" stroke="#262625" stroke-miterlimit="10" points="661.3,93.2 660.1,101.1 668.1,98.4 			"/>
			
				<text transform="matrix(0.9938 0 0 1 620.3777 168.1938)" fill="#262625" font-family="'ACaslonPro-Semibold'" font-size="16.4174">trendy hair</text>
			
				<text transform="matrix(0.9938 0 0 1 639.7849 187.8955)" fill="#262625" font-family="'ACaslonPro-Semibold'" font-size="16.4174">styling</text>
			<g>
				<path fill="#262625" d="M665.4,103.7l14.9,24c0.1,0.1,0,0.3-0.1,0.3c-0.1,0.1-0.3,0-0.3-0.1l-15.6-23.6
					c-0.2-0.3-0.1-0.7,0.2-0.9C664.7,103.4,665.2,103.5,665.4,103.7C665.3,103.7,665.4,103.7,665.4,103.7z"/>
			</g>
			<g>
				<path fill="#262625" d="M646.8,74.4l12.8,20.2c0.2,0.3,0.1,0.7-0.2,0.9c-0.3,0.2-0.7,0.1-0.9-0.2l-13.1-20
					c-0.3-0.4-0.2-1,0.3-1.2C645.9,73.9,646.5,74,646.8,74.4C646.7,74.4,646.8,74.4,646.8,74.4z"/>
			</g>
			<line fill="none" stroke="#262625" stroke-linecap="round" stroke-miterlimit="10" x1="646" y1="74.9" x2="634.1" y2="82.7"/>
			<line fill="none" stroke="#262625" stroke-linecap="round" stroke-miterlimit="10" x1="648" y1="78" x2="636.1" y2="85.8"/>
			<line fill="none" stroke="#262625" stroke-linecap="round" stroke-miterlimit="10" x1="650" y1="81" x2="638" y2="88.9"/>
			<line fill="none" stroke="#262625" stroke-linecap="round" stroke-miterlimit="10" x1="651.9" y1="84.1" x2="640" y2="91.9"/>
			<line fill="none" stroke="#262625" stroke-linecap="round" stroke-miterlimit="10" x1="654" y1="87.1" x2="642" y2="95"/>
			<line fill="none" stroke="#262625" stroke-linecap="round" stroke-miterlimit="10" x1="656" y1="90.3" x2="644" y2="98.1"/>
		</g>
		<g id="Flawless_cosmetics_icon">
			<ellipse fill="none" stroke="#262625" stroke-width="3" stroke-miterlimit="10" cx="289.7" cy="104" rx="38.6" ry="38.9"/>
			<ellipse fill="none" stroke="#262625" stroke-width="2" stroke-miterlimit="10" cx="281.9" cy="120" rx="15.9" ry="16"/>
			<path fill="none" stroke="#262625" stroke-width="2" stroke-miterlimit="10" d="M286.6,101.3h-9.4c-0.5,0-0.9-0.3-0.9-0.9V94
				c0-1.6,1.4-3,3-3h5.4c1.5,0,2.7,1.2,2.7,2.8v6.7C287.4,101,287,101.3,286.6,101.3z"/>
			<polygon fill="none" stroke="#262625" stroke-width="2" stroke-linejoin="round" stroke-miterlimit="10" points="288.5,81.8 
				285.9,81.8 281.7,77.5 276.2,82.9 281.7,88.5 285.9,84.4 288.5,84.4 			"/>
			<path fill="none" stroke="#262625" stroke-width="2" stroke-miterlimit="10" d="M304.1,89h-3.4c-3.3,0-6-2.7-6-6l0,0
				c0-3.4,2.7-6,6-6h3.4c3.3,0,6,2.7,6,6l0,0C310.1,86.3,307.4,89,304.1,89z"/>
			<path fill="none" stroke="#262625" stroke-linecap="round" stroke-miterlimit="10" d="M269,122.2c-0.6-6,2.8-15.8,12.6-14
				c0.3,0.1,0.3,0.4,0.1,0.5c-8.4,3.7-9.6,9.9-11.5,13.7C269.9,123,269.1,122.9,269,122.2z"/>
			
				<text transform="matrix(0.9938 0 0 1 261.1631 168.1938)" fill="#262625" font-family="'ACaslonPro-Semibold'" font-size="16.4174">flawless</text>
			
				<text transform="matrix(0.9938 0 0 1 253.355 187.8955)" fill="#262625" font-family="'ACaslonPro-Semibold'" font-size="16.4174">cosmetics</text>
		</g>
		<g id="Perfect_visage_icon">
			<ellipse fill="none" stroke="#262625" stroke-width="3" stroke-miterlimit="10" cx="474.8" cy="104.3" rx="38.6" ry="38.9"/>
			<polygon fill="none" stroke="#262625" stroke-width="2" stroke-linejoin="round" stroke-miterlimit="10" points="469.1,102.8 
				457.1,102.8 459.3,78.6 467,78.6 			"/>
			<path fill="none" stroke="#262625" stroke-width="2" stroke-miterlimit="10" d="M465.9,132.3h-5.2c-2.8,0-5.4-2.6-5.4-5.4
				l-2.1-14.5c0-2.9,2.3-5.2,5.2-5.2h9.4c2.8,0,5.2,2.3,5.2,5.2l-1.5,14.3C471.4,129.4,468.7,132.3,465.9,132.3z"/>
			<path fill="none" stroke="#262625" stroke-width="2" stroke-linejoin="round" stroke-miterlimit="10" d="M458.2,123.5l-1.4-8.9
				c-0.3-2.2,1.4-4.1,3.6-4.1h7.6L458.2,123.5z"/>
			<polygon fill="none" stroke="#262625" stroke-width="2" stroke-linejoin="round" stroke-miterlimit="10" points="490.6,132.3 
				483.5,132.3 480.5,105.5 493.3,105.5 			"/>
			<path fill="#262625" d="M486.9,102.8L486.9,102.8c-0.7,0-1.3-0.6-1.3-1.3v-13c0-0.7,0.6-1.3,1.3-1.3l0,0c0.7,0,1.3,0.6,1.3,1.3
				v13C488.2,102.3,487.7,102.8,486.9,102.8z"/>
			
				<path fill="#D8CFC3" stroke="#262625" stroke-width="3" stroke-linecap="round" stroke-linejoin="round" stroke-miterlimit="10" d="
				M487.2,74.8c0,0-2.7,4-0.5,10.3"/>
			
				<text transform="matrix(0.9938 0 0 1 449.0005 168.1938)" fill="#262625" font-family="'ACaslonPro-Semibold'" font-size="16.4174">perfect</text>
			
				<text transform="matrix(0.9938 0 0 1 452.4414 187.8955)" fill="#262625" font-family="'ACaslonPro-Semibold'" font-size="16.4174">visage</text>
		</g>
	</g>
</g>
<g id="Layer_2_1_">
	<rect x="160.6" y="278.7" fill="#FFFFFF" stroke="#262625" stroke-miterlimit="10" width="639.3" height="326"/>
	<g>
		<g>
			<path fill="#231F20" d="M341,378.5c-3.4-3.3-6.8-6.8-10.2-10.6c-1.5,4.5-3.1,9-4.7,13.5c3.8,4.2,7.7,8,11.6,11.7
				c-0.8,2.3-1.6,4.6-2.3,6.9c-5.6-5.2-11.1-10.9-16.6-17.2c5.4-15.4,10.7-30.7,15.9-45.7c5.1,6.1,10.2,11.7,15.4,16.9
				c-0.7,2.2-1.5,4.5-2.2,6.7c-3.6-3.5-7.1-7.3-10.6-11.2c-1.3,3.9-2.7,7.8-4,11.7c3.4,3.7,6.7,7.3,10.1,10.6
				C342.5,374,341.8,376.3,341,378.5z"/>
			<path fill="#231F20" d="M360.4,418c-1.5,0.2-4.6-0.6-8-3c-9-6.5-11.2-20.8-6.6-34.5c5-15,14-17.8,22.2-11.2c3.3,2.6,5.2,5.4,6,7
				c-1,1.9-2.1,3.7-3.1,5.6c-1-1.9-2.5-4-4.8-5.7c-5.5-4.3-11.3-2.3-14.9,8.6c-3.3,9.9-1.8,19.5,4.3,24c2.1,1.5,4.5,2.3,6.1,2.2
				C361.3,413.3,360.9,415.7,360.4,418z"/>
			<path fill="#231F20" d="M364.2,422c3.5-10.9,6.9-21.6,10.2-32.2c1.7,1.1,3.4,2.2,5.1,3.3c-3.3,10.5-6.7,21.2-10.1,32
				C367.7,424.1,366,423.1,364.2,422z M382.6,384.6c-0.7,2.4-2.4,3.6-4.2,2.4c-1.7-1.1-2.2-3.7-1.4-6.1c0.8-2.5,2.5-3.5,4.2-2.4
				C382.8,379.6,383.3,382.1,382.6,384.6z"/>
			<path fill="#231F20" d="M403.6,405.5c-0.7,2-1.5,4.5-2.8,8.7c-1.8,5.8-3.5,11.6-5.3,17.5c-2,6.5-4.4,11-7.5,13.2
				c-3.1,2.1-6.5,1.9-9.4,0.7c-2.7-1.1-5.3-3.3-6.5-5.9c1-1.9,2.1-3.8,3.1-5.6c1,1.8,2.8,4.2,5.3,5.3c3.5,1.5,6.9-0.3,9-7.1
				c0.3-0.9,0.6-1.8,0.8-2.7c0,0-0.1,0-0.1,0c-2.1,2.3-4.8,3.3-7.5,2.1c-5.2-2.3-6.8-10.9-3.9-19.9c3.3-10.5,9.5-14.1,14.4-11.7
				c3.1,1.6,4.2,4.7,4.4,7.6c0,0,0.1,0,0.1,0c0.5-1.3,1-2.7,1.5-4C400.6,404.2,402.1,404.9,403.6,405.5z M394.5,415.5
				c0.2-0.7,0.4-1.5,0.5-2.2c0.3-3.1-0.5-5.9-2.7-7c-2.9-1.4-6.2,1.3-8.2,7.7c-1.7,5.4-1.3,10.7,2,12.1c2,0.9,4.3-0.4,5.8-2.9
				c0.4-0.8,0.8-1.8,1.1-2.7C393.5,418.9,394,417.2,394.5,415.5z"/>
			<path fill="#231F20" d="M411.8,441.5c0.2-1.2,0.4-2.3,0.7-3.5c0,0-0.1,0-0.1,0c-2,2-4.8,3.2-7.5,2.4c-4.3-1.2-5.3-6.6-3.9-11.3
				c2.4-7.8,8.2-9.9,15.9-7.5c0-0.2,0.1-0.3,0.1-0.5c0.6-2,1-5.3-2.7-6.5c-2.1-0.7-4.5-0.5-6.3,0.3c0.2-1.8,0.3-3.5,0.5-5.3
				c1.9-0.8,5-1.1,8.3,0c6.6,2.2,6.8,8.5,4.9,14.9c-1.1,3.5-2.1,7.1-3.2,10.7c-0.8,2.7-1.5,5.4-1.8,7.3
				C415,442.3,413.4,441.9,411.8,441.5z M415.5,426.6c-3.7-1.2-7.7-1.1-9.1,3.5c-0.9,3,0,4.8,1.7,5.3c2.1,0.6,4.3-1,5.4-3
				c0.3-0.5,0.5-1.1,0.7-1.6C414.7,429.3,415.1,428,415.5,426.6z"/>
			<path fill="#231F20" d="M428,423.7c1.2-3.9,1.9-6.7,2.6-9.3c1.5,0.4,3.1,0.8,4.6,1.1c-0.5,1.8-0.9,3.6-1.4,5.5c0.1,0,0.1,0,0.2,0
				c2.2-3.8,5.3-5.3,7.5-4.8c0.5,0.1,0.8,0.2,1.2,0.4c-0.6,2.2-1.3,4.4-1.9,6.6c-0.4-0.2-0.9-0.4-1.5-0.5c-2.6-0.5-5,1.4-6.4,4.5
				c-0.3,0.6-0.6,1.4-0.8,2.2c-1.5,5-2.9,10-4.4,15.1c-1.8-0.3-3.6-0.6-5.5-0.9C424.1,436.9,426,430.3,428,423.7z"/>
			<path fill="#231F20" d="M445.4,434.1c-1.3,5.1,1.1,7.6,4.6,7.8c2.6,0.2,4.6-0.2,6.4-0.9c-0.2,1.6-0.4,3.2-0.6,4.8
				c-2.2,0.9-5,1.5-8.2,1.3c-7.2-0.4-9.6-6.7-7.1-15.4c2.3-7.9,8-14.4,14.8-13.3c6.9,1,7.3,8.1,5.6,14c-0.4,1.3-0.7,2.2-1,2.8
				C455.1,435.1,450.2,434.7,445.4,434.1z M456.3,430.3c0.8-2.5,1-6.6-2.6-7.1c-3.4-0.5-5.9,3.2-6.9,6
				C450,429.6,453.2,430,456.3,430.3z"/>
			<path fill="#231F20" d="M477.2,414.3c-0.7,2.4-1.4,4.7-2,7.1c1.7,0.1,3.5,0.3,5.2,0.4c-0.4,1.6-0.9,3.1-1.3,4.7
				c-1.8-0.1-3.5-0.2-5.3-0.3c-1.1,3.7-2.2,7.5-3.3,11.4c-0.9,3.2-0.7,4.9,1.5,4.9c1,0,1.7-0.1,2.3-0.3c-0.4,1.7-0.9,3.3-1.3,5
				c-0.9,0.4-2.5,0.7-4.3,0.7c-2.1,0-3.6-0.8-4.2-2.2c-0.7-1.6-0.6-4,0.4-7.5c1.2-4.2,2.4-8.3,3.5-12.3c-1-0.1-2.1-0.2-3.1-0.3
				c0.5-1.6,0.9-3.3,1.4-4.9c1,0.1,2.1,0.2,3.1,0.3c0.6-1.9,1.1-3.8,1.6-5.7C473.4,414.9,475.3,414.6,477.2,414.3z"/>
			<path fill="#231F20" d="M477.8,443.6c0.7-2.4,2.7-4.1,4.7-4.1c2.1,0,3,1.6,2.3,4c-0.7,2.3-2.6,4.1-4.7,4.2
				C478,447.7,477.1,445.9,477.8,443.6z"/>
			<path fill="#231F20" d="M505.4,445.3c-1.4,0.6-4,1.4-6.8,1.5c-7.1,0.4-10.3-4.4-8.1-12c2.1-7.3,8.2-12.5,16-12.1
				c2.1,0.1,4,0.6,5.2,1.3c-0.7,1.4-1.5,2.7-2.2,4.1c-0.8-0.4-2-0.9-4-1c-4.3-0.1-7.8,3.1-9,7.4c-1.4,4.9,0.8,7.6,4.7,7.5
				c2-0.1,3.5-0.6,4.8-1.1C505.7,442.4,505.5,443.8,505.4,445.3z"/>
			<path fill="#231F20" d="M534.5,434.2c-2.1,7.3-9.2,11.1-15.1,11.5c-6.6,0.4-10.3-3.8-8.2-11c2.1-7.4,8.2-11.5,15-11.1
				C532.9,423.9,536.3,428.2,534.5,434.2z M517.2,434.5c-1.2,4.2,0,7.4,3.6,7.2c3.3-0.1,6.5-3.2,7.7-7.4c0.9-3.2,0.4-6.8-3.5-7
				C520.9,427.2,518.2,430.8,517.2,434.5z"/>
			<path fill="#231F20" d="M540.4,430.5c0.6-2.2,1.1-4,1.5-5.7c1.7,0.1,3.3,0.2,5,0.3c-0.2,0.9-0.4,1.8-0.6,2.7c0,0,0.1,0,0.1,0
				c1.6-1.4,4.1-2.9,8-2.6c3,0.3,5,1.7,5.5,3.7c0,0,0.1,0,0.1,0c1.1-0.9,2.3-1.5,3.5-1.8c1.5-0.5,3.1-0.7,5-0.5
				c3.9,0.5,7.3,2.7,5.8,7.7c-0.9,3.1-1.9,6.3-2.9,9.5c-2-0.1-3.9-0.1-5.9-0.1c1-3.2,1.9-6.3,2.8-9.3c0.8-2.7-0.1-4.4-2.9-4.7
				c-2-0.2-3.8,0.7-4.8,1.9c-0.3,0.4-0.6,0.9-0.7,1.4c-1,3.4-2.1,7-3.2,10.6c-2,0-3.9,0-5.8,0.1c1.1-3.6,2.1-7.2,3.1-10.6
				c0.7-2.5,0-4.3-2.7-4.5c-2.2-0.1-4,1.1-5,2.4c-0.4,0.5-0.6,1-0.8,1.5c-1.1,3.7-2.2,7.5-3.3,11.4c-1.9,0.1-3.9,0.1-5.8,0.2
				C537.7,439.6,539.1,435,540.4,430.5z"/>
			<path fill="#231F20" d="M577.7,441.9c0.5-1.5,2.3-2.4,4.5-2.2c2.2,0.2,3.4,1.3,3,2.8c-0.4,1.4-2.3,2.3-4.5,2.2
				C578.4,444.5,577.2,443.3,577.7,441.9z"/>
			<path fill="#231F20" d="M612.5,444c-0.5,1.4-0.8,2.6-1,3.6c-1.8-0.3-3.6-0.6-5.4-0.9c0.1-0.7,0.2-1.3,0.3-2c0,0-0.1,0-0.1,0
				c-1.3,0.7-4.2,1.7-8.6,1.2c-4.5-0.5-8-2.4-6.5-7.1c0.9-2.7,1.7-5.4,2.5-7.9c2,0.4,4,0.8,6,1.3c-0.7,2.2-1.5,4.6-2.2,7
				c-0.7,2.2,0.1,3.8,3.4,4.3c2.4,0.3,4.4-0.3,5.3-1c0.3-0.2,0.6-0.5,0.7-0.9c0.8-2.5,1.6-4.8,2.4-7.1c2,0.5,4,1.1,6,1.7
				C614.3,438.7,613.4,441.3,612.5,444z"/>
			<path fill="#231F20" d="M632,452.2c0-0.4,0-0.8,0-1.2c-0.1,0-0.1,0-0.2,0c-1.8,0.3-4.6,0.2-7.8-0.5c-5-1.1-7.2-3.3-6.6-5
				c1-2.8,6.9-2.8,15.9,0.4c0,0,0-0.1,0.1-0.1c0.2-0.6-0.1-1.8-4.4-3.3c-2.4-0.8-5-1.3-6.8-1.4c-0.2-0.7-0.4-1.3-0.6-2
				c1.9,0.1,5.2,0.8,9,2.2c7.8,3,9.4,5.6,8.7,7.3c-0.4,1-0.8,2-1.2,3.1c-0.3,0.8-0.5,1.6-0.5,2.3C635.8,453.2,633.9,452.7,632,452.2
				z M632.9,447.3c-4.4-1.5-8.7-2.3-9.2-0.7c-0.4,1,1,1.9,3,2.4c2.5,0.6,4.6,0.5,5.4,0c0.2-0.1,0.3-0.3,0.4-0.5
				C632.6,448.1,632.7,447.7,632.9,447.3z"/>
		</g>
	</g>
	<g id="cigarette">
		<path fill="#231F20" d="M364,469c0,0-4,0.9-6,5.3v20.4c2,4.4,6,5.3,6,5.3V469z"/>
		<path fill="#231F20" d="M431.5,464.8c0,0-1.1-1-3.2-1h-56.8c-3.4,0-4.2,1.8-4.2,1.8s-1,1.1-1,4.2v29.5c0,3.1,1,4.2,1,4.2
			s0.8,1.8,4.2,1.8h56.8c2.1,0,3.2-1,3.2-1s1.5-0.9,1.5-4.2v-31C433,465.7,431.5,464.8,431.5,464.8z M375.3,467.5h50.1v6.8h-15.1
			c-7.2,1.7-13,2.5-18.9,2.5c-13.6-0.2-16-2.5-17-5.2C373.2,468.5,375.3,467.5,375.3,467.5z M425.3,501.5h-50.1c0,0-2-1-0.9-4.1
			c1-2.7,3.4-5,17-5.2c5.9-0.1,11.8,0.8,18.9,2.5h15.1V501.5z M430.6,484.5h-60.3v-2.9h60.3V484.5z M430.6,480.6h-60.3v-0.9h60.3
			V480.6z"/>
		<path fill="#231F20" d="M440.9,464.6c-2.4,0-4.3,0.6-5.5,2.9v34c1.2,2.3,3.1,2.9,5.5,2.9c2.9,0,4.4-1.2,5.5-2.8v-34.3
			C445.3,465.8,443.8,464.6,440.9,464.6z"/>
		<path fill="#231F20" d="M630.2,463.8c0,0-172.8,0-177.3,0c-3.2,0-4.3,1.7-4.3,3.7v34c0,2,1.2,3.7,4.3,3.7c4.5,0,177.3,0,177.3,0
			c2.1,0,4-1.5,4-3.7v-34C634.2,465.3,632.3,463.8,630.2,463.8z M626.4,476.5H456.3v-3.3h170.1V476.5z M626.4,470.6H456.3v-1.1
			h170.1V470.6z"/>
		<path fill="#231F20" d="M349.4,479.5h6.7v-4.4c0,0-7.2-0.7-10.3,1.5c-3.5,2.5-16.7,2.6-21.3,0.6c-2.6-1.1-5.3-1.5-7.2-1.6
			c-5.9-0.6-5.9,2.1-5.9,4.4c0,1.2,0,4.5,0,4.5s0,3.2,0,4.5c0,2.4,0,5,5.9,4.4c1.9-0.2,4.6-0.5,7.2-1.6c4.6-2,17.8-2,21.3,0.6
			c3.1,2.3,10.3,1.5,10.3,1.5v-11l-6.8,0c-0.4,0-0.9-0.7-0.9-1.7C348.3,480,348.8,479.5,349.4,479.5z M317.7,479.4
			c-2-0.3-3.5-1-3.5-1.6s1.8-0.9,3.7-0.6c2,0.3,3.5,1,3.5,1.6C321.4,479.4,319.7,479.7,317.7,479.4z"/>
	</g>
</g>
</svg>
